<svg width="24" height="24" viewBox="0 0 24 24" fill="none" xmlns="http://www.w3.org/2000/svg">
<path fill-rule="evenodd" clip-rule="evenodd" d="M6.70472 1.03189C8.19156 1.47687 9.03548 3.05399 8.59454 4.55498C8.15461 6.05036 6.58828 6.90201 5.10346 6.45754C3.61915 6.01051 2.7727 4.43543 3.21364 2.94006C3.65711 1.43651 5.2204 0.587922 6.70472 1.03189Z" fill="#253257"/>
<path d="M12.0751 0.566926C11.4372 0.749825 11.0712 1.42113 11.2499 2.06486L12.0331 4.87679L9.09078 6.79008L6.67345 8.20013C6.57321 8.25889 6.48057 8.32735 6.39906 8.41266L3.70938 11.4514L0.917428 12.1488C-0.667123 12.5453 -0.0292526 14.9475 1.53961 14.4923L4.65859 13.7075C4.87476 13.6518 5.07017 13.5348 5.22255 13.3724L7.06022 11.2415L10.7224 16.2272C10.8515 16.4004 11.0176 16.5414 11.2074 16.6395L14.7299 18.6514L14.9516 22.1285C15.0726 24.0198 17.8281 23.8788 17.6747 21.9901L17.2899 17.3103C17.1897 16.9236 16.9315 16.5997 16.5807 16.4158L13.644 14.713L18.3131 13.7581L21.9859 15.5753C23.739 16.3974 24.8963 13.6789 23.093 12.9627L19.0066 10.9671C18.7408 10.8527 18.4457 10.8205 18.1632 10.8792L13.9057 11.7498L11.2742 8.25633L14.0712 6.43603C14.5117 6.15095 14.7172 5.61094 14.5805 5.10005L13.5706 1.43646C13.407 0.774347 12.7292 0.377386 12.0751 0.566926Z" fill="#253257"/>
</svg>
