<svg width="16" height="16" viewBox="0 0 16 16" fill="none" xmlns="http://www.w3.org/2000/svg">
<path d="M2.42312 15.9154C2.00756 15.9154 1.65256 15.7682 1.35812 15.4739C1.06381 15.1795 0.916662 14.8245 0.916662 14.4089V5.07724C0.672078 4.95113 0.472009 4.77189 0.316453 4.53953C0.161037 4.30717 0.0833282 4.03925 0.0833282 3.73578V1.58849C0.0833282 1.17293 0.230481 0.817934 0.524787 0.52349C0.819231 0.229184 1.17423 0.0820312 1.58979 0.0820312H14.4102C14.8258 0.0820312 15.1808 0.229184 15.4752 0.52349C15.7695 0.817934 15.9167 1.17293 15.9167 1.58849V3.73578C15.9167 4.03925 15.839 4.30717 15.6835 4.53953C15.528 4.77189 15.3279 4.95113 15.0833 5.07724V14.4089C15.0833 14.8245 14.9362 15.1795 14.6419 15.4739C14.3474 15.7682 13.9924 15.9154 13.5769 15.9154H2.42312ZM2.16666 5.24224V14.3689C2.16666 14.4543 2.19736 14.5251 2.25874 14.5812C2.32027 14.6373 2.39645 14.6654 2.48729 14.6654H13.5769C13.6517 14.6654 13.7132 14.6413 13.7612 14.5933C13.8093 14.5452 13.8333 14.4838 13.8333 14.4089V5.24224H2.16666ZM1.58979 3.99224H14.4102C14.4851 3.99224 14.5465 3.96821 14.5946 3.92016C14.6426 3.8721 14.6667 3.81064 14.6667 3.73578V1.58849C14.6667 1.51363 14.6426 1.45217 14.5946 1.40411C14.5465 1.35606 14.4851 1.33203 14.4102 1.33203H1.58979C1.51493 1.33203 1.45347 1.35606 1.40541 1.40411C1.35736 1.45217 1.33333 1.51363 1.33333 1.58849V3.73578C1.33333 3.81064 1.35736 3.8721 1.40541 3.92016C1.45347 3.96821 1.51493 3.99224 1.58979 3.99224ZM5.6602 9.19266H10.3398V7.9987H5.6602V9.19266Z" fill="white"/>
</svg>
