<svg width="23" height="18" viewBox="0 0 23 18" fill="none" xmlns="http://www.w3.org/2000/svg">
<path d="M19.8636 4.83464H16.7273V0.667969H2.09091C0.935682 0.667969 0 1.60026 0 2.7513V14.2096H2.09091C2.09091 15.9336 3.49705 17.3346 5.22727 17.3346C6.9575 17.3346 8.36364 15.9336 8.36364 14.2096H14.6364C14.6364 15.9336 16.0425 17.3346 17.7727 17.3346C19.503 17.3346 20.9091 15.9336 20.9091 14.2096H23V9.0013L19.8636 4.83464ZM5.22727 15.7721C4.35955 15.7721 3.65909 15.0742 3.65909 14.2096C3.65909 13.3451 4.35955 12.6471 5.22727 12.6471C6.095 12.6471 6.79545 13.3451 6.79545 14.2096C6.79545 15.0742 6.095 15.7721 5.22727 15.7721ZM19.3409 6.39714L21.3952 9.0013H16.7273V6.39714H19.3409ZM17.7727 15.7721C16.905 15.7721 16.2045 15.0742 16.2045 14.2096C16.2045 13.3451 16.905 12.6471 17.7727 12.6471C18.6405 12.6471 19.3409 13.3451 19.3409 14.2096C19.3409 15.0742 18.6405 15.7721 17.7727 15.7721Z" fill="#253257"/>
</svg>
