<svg width="16" height="17" viewBox="0 0 16 17" fill="none" xmlns="http://www.w3.org/2000/svg">
<path d="M8.00001 16.4922V15.2422H13.5769C13.6517 15.2422 13.7132 15.2182 13.7613 15.1702C13.8093 15.1221 13.8333 15.0606 13.8333 14.9858V14.2487H10.8846V8.3512H13.8333V7.16537C13.8333 5.55425 13.2639 4.17925 12.125 3.04036C10.9861 1.90148 9.61112 1.33203 8.00001 1.33203C6.38889 1.33203 5.01389 1.90148 3.87501 3.04036C2.73612 4.17925 2.16667 5.55425 2.16667 7.16537V8.3512H5.11542V14.2487H2.42313C2.00216 14.2487 1.64584 14.1029 1.35417 13.8112C1.06251 13.5195 0.916672 13.1632 0.916672 12.7422V7.16537C0.916672 6.19106 1.10257 5.27439 1.47438 4.41537C1.84619 3.55634 2.35369 2.80529 2.99688 2.16224C3.63994 1.51904 4.39098 1.01155 5.25001 0.63974C6.10903 0.267934 7.0257 0.0820312 8.00001 0.0820312C8.97431 0.0820312 9.89098 0.267934 10.75 0.63974C11.609 1.01155 12.3601 1.51904 13.0031 2.16224C13.6463 2.80529 14.1538 3.55634 14.5256 4.41537C14.8974 5.27439 15.0833 6.19106 15.0833 7.16537V14.9858C15.0833 15.4068 14.9375 15.7631 14.6458 16.0547C14.3542 16.3464 13.9979 16.4922 13.5769 16.4922H8.00001ZM2.42313 12.9987H3.86542V9.6012H2.16667V12.7422C2.16667 12.8171 2.1907 12.8786 2.23876 12.9266C2.28681 12.9747 2.34827 12.9987 2.42313 12.9987ZM12.1346 12.9987H13.8333V9.6012H12.1346V12.9987ZM2.42313 9.6012H2.16667H3.86542H2.42313Z" fill="#FDFDFD"/>
</svg>
