<svg width="104" height="48" viewBox="0 0 104 48" fill="none" xmlns="http://www.w3.org/2000/svg">
<g filter="url(#filter0_d_2628_130429)">
<rect x="2" y="1" width="100" height="44" rx="8" fill="white"/>
<rect x="2.5" y="1.5" width="99" height="43" rx="7.5" stroke="#2B446C"/>
<path d="M38 23H24M24 23L31 16M24 23L31 30" stroke="#545861" stroke-width="2" stroke-linecap="round" stroke-linejoin="round"/>
<path d="M52.0043 28V17.8182H55.902C56.6378 17.8182 57.2493 17.9342 57.7365 18.1662C58.227 18.3949 58.5933 18.7081 58.8352 19.1058C59.0805 19.5036 59.2031 19.9543 59.2031 20.4581C59.2031 20.8724 59.1236 21.227 58.9645 21.522C58.8054 21.8137 58.5916 22.0507 58.3232 22.233C58.0547 22.4152 57.7547 22.5462 57.4233 22.6257V22.7251C57.7846 22.745 58.1309 22.8561 58.4624 23.0582C58.7971 23.2571 59.0705 23.5388 59.2827 23.9034C59.4948 24.268 59.6009 24.7088 59.6009 25.2259C59.6009 25.7528 59.4732 26.2268 59.218 26.6477C58.9628 27.0653 58.5784 27.3951 58.0646 27.6371C57.5509 27.879 56.9046 28 56.1257 28H52.0043ZM53.8487 26.4588H55.8324C56.5019 26.4588 56.9841 26.3312 57.2791 26.076C57.5774 25.8175 57.7266 25.486 57.7266 25.0817C57.7266 24.7801 57.652 24.5083 57.5028 24.2663C57.3537 24.0211 57.1416 23.8288 56.8665 23.6896C56.5914 23.5471 56.2633 23.4759 55.8821 23.4759H53.8487V26.4588ZM53.8487 22.1484H55.6733C55.9915 22.1484 56.2782 22.0904 56.5334 21.9744C56.7886 21.8551 56.9891 21.6877 57.1349 21.4723C57.2841 21.2536 57.3587 20.995 57.3587 20.6967C57.3587 20.3023 57.2195 19.9775 56.9411 19.7223C56.666 19.4671 56.2566 19.3395 55.7131 19.3395H53.8487V22.1484ZM63.3233 28.1541C62.8394 28.1541 62.4036 28.0679 62.0158 27.8956C61.6313 27.7199 61.3264 27.4614 61.101 27.12C60.879 26.7786 60.7679 26.3577 60.7679 25.8572C60.7679 25.4264 60.8475 25.0701 61.0066 24.7884C61.1657 24.5066 61.3828 24.2812 61.6578 24.1122C61.9329 23.9432 62.2428 23.8156 62.5875 23.7294C62.9355 23.6399 63.2952 23.5753 63.6664 23.5355C64.1138 23.4891 64.4767 23.4477 64.7551 23.4112C65.0336 23.3714 65.2357 23.3118 65.3617 23.2322C65.4909 23.1494 65.5556 23.0218 65.5556 22.8494V22.8196C65.5556 22.4451 65.4445 22.1551 65.2225 21.9496C65.0004 21.7441 64.6806 21.6413 64.263 21.6413C63.8221 21.6413 63.4725 21.7375 63.214 21.9297C62.9587 22.1219 62.7864 22.349 62.6969 22.6108L61.0165 22.3722C61.1491 21.9081 61.3678 21.5204 61.6728 21.2088C61.9777 20.8939 62.3506 20.6586 62.7914 20.5028C63.2322 20.3438 63.7194 20.2642 64.253 20.2642C64.6209 20.2642 64.9872 20.3073 65.3517 20.3935C65.7163 20.4796 66.0494 20.6222 66.351 20.821C66.6526 21.0166 66.8946 21.2834 67.0769 21.6214C67.2625 21.9595 67.3553 22.3821 67.3553 22.8892V28H65.6252V26.951H65.5655C65.4561 27.1631 65.302 27.362 65.1032 27.5476C64.9076 27.7299 64.6607 27.8774 64.3624 27.9901C64.0674 28.0994 63.7211 28.1541 63.3233 28.1541ZM63.7907 26.8317C64.1519 26.8317 64.4651 26.7604 64.7303 26.6179C64.9954 26.4721 65.1993 26.2798 65.3418 26.0412C65.4876 25.8026 65.5605 25.5424 65.5605 25.2607V24.3608C65.5042 24.4072 65.4081 24.4503 65.2722 24.4901C65.1396 24.5298 64.9905 24.5646 64.8248 24.5945C64.659 24.6243 64.495 24.6508 64.3326 24.674C64.1702 24.6972 64.0293 24.7171 63.91 24.7337C63.6415 24.7701 63.4012 24.8298 63.1891 24.9126C62.977 24.9955 62.8096 25.1115 62.687 25.2607C62.5643 25.4065 62.503 25.5954 62.503 25.8274C62.503 26.1589 62.624 26.4091 62.8659 26.5781C63.1079 26.7472 63.4161 26.8317 63.7907 26.8317ZM72.4959 28.1491C71.7336 28.1491 71.079 27.9818 70.5321 27.647C69.9886 27.3123 69.5693 26.8499 69.2743 26.2599C68.9827 25.6667 68.8368 24.9839 68.8368 24.2116C68.8368 23.4361 68.986 22.7517 69.2843 22.1584C69.5826 21.5618 70.0035 21.0978 70.5471 20.7663C71.0939 20.4316 71.7402 20.2642 72.486 20.2642C73.1058 20.2642 73.6543 20.3786 74.1316 20.6072C74.6122 20.8326 74.995 21.1525 75.28 21.5668C75.565 21.9777 75.7275 22.4583 75.7672 23.0085H74.0471C73.9775 22.6406 73.8117 22.334 73.5499 22.0888C73.2914 21.8402 72.945 21.7159 72.5108 21.7159C72.1429 21.7159 71.8198 21.8153 71.5414 22.0142C71.263 22.2098 71.0459 22.4915 70.8901 22.8594C70.7376 23.2273 70.6614 23.6681 70.6614 24.1818C70.6614 24.7022 70.7376 25.1496 70.8901 25.5241C71.0426 25.8954 71.2563 26.1821 71.5314 26.3842C71.8098 26.5831 72.1363 26.6825 72.5108 26.6825C72.776 26.6825 73.013 26.6328 73.2218 26.5334C73.4339 26.4306 73.6112 26.2831 73.7537 26.0909C73.8962 25.8987 73.994 25.665 74.0471 25.3899H75.7672C75.7241 25.9302 75.565 26.4091 75.29 26.8267C75.0149 27.241 74.6403 27.5658 74.1664 27.8011C73.6924 28.0331 73.1356 28.1491 72.4959 28.1491ZM78.8857 25.6037L78.8807 23.4311H79.169L81.9134 20.3636H84.0163L80.6406 24.1222H80.2678L78.8857 25.6037ZM77.245 28V17.8182H79.0447V28H77.245ZM82.0376 28L79.5518 24.5249L80.7649 23.2571L84.1903 28H82.0376Z" fill="#545861"/>
</g>
<defs>
<filter id="filter0_d_2628_130429" x="0" y="0" width="104" height="48" filterUnits="userSpaceOnUse" color-interpolation-filters="sRGB">
<feFlood flood-opacity="0" result="BackgroundImageFix"/>
<feColorMatrix in="SourceAlpha" type="matrix" values="0 0 0 0 0 0 0 0 0 0 0 0 0 0 0 0 0 0 127 0" result="hardAlpha"/>
<feOffset dy="1"/>
<feGaussianBlur stdDeviation="1"/>
<feColorMatrix type="matrix" values="0 0 0 0 0.0627451 0 0 0 0 0.0941176 0 0 0 0 0.156863 0 0 0 0.05 0"/>
<feBlend mode="normal" in2="BackgroundImageFix" result="effect1_dropShadow_2628_130429"/>
<feBlend mode="normal" in="SourceGraphic" in2="effect1_dropShadow_2628_130429" result="shape"/>
</filter>
</defs>
</svg>
