<svg width="69" height="44" viewBox="0 0 69 44" fill="none" xmlns="http://www.w3.org/2000/svg">
<path d="M20.5 22H6.5M6.5 22L13.5 15M6.5 22L13.5 29" stroke="#2B303A" stroke-width="2" stroke-linecap="round" stroke-linejoin="round"/>
<path d="M34.5043 27V16.8182H38.402C39.1378 16.8182 39.7493 16.9342 40.2365 17.1662C40.727 17.3949 41.0933 17.7081 41.3352 18.1058C41.5805 18.5036 41.7031 18.9543 41.7031 19.4581C41.7031 19.8724 41.6236 20.227 41.4645 20.522C41.3054 20.8137 41.0916 21.0507 40.8232 21.233C40.5547 21.4152 40.2547 21.5462 39.9233 21.6257V21.7251C40.2846 21.745 40.6309 21.8561 40.9624 22.0582C41.2971 22.2571 41.5705 22.5388 41.7827 22.9034C41.9948 23.268 42.1009 23.7088 42.1009 24.2259C42.1009 24.7528 41.9732 25.2268 41.718 25.6477C41.4628 26.0653 41.0784 26.3951 40.5646 26.6371C40.0509 26.879 39.4046 27 38.6257 27H34.5043ZM36.3487 25.4588H38.3324C39.0019 25.4588 39.4841 25.3312 39.7791 25.076C40.0774 24.8175 40.2266 24.486 40.2266 24.0817C40.2266 23.7801 40.152 23.5083 40.0028 23.2663C39.8537 23.0211 39.6416 22.8288 39.3665 22.6896C39.0914 22.5471 38.7633 22.4759 38.3821 22.4759H36.3487V25.4588ZM36.3487 21.1484H38.1733C38.4915 21.1484 38.7782 21.0904 39.0334 20.9744C39.2886 20.8551 39.4891 20.6877 39.6349 20.4723C39.7841 20.2536 39.8587 19.995 39.8587 19.6967C39.8587 19.3023 39.7195 18.9775 39.4411 18.7223C39.166 18.4671 38.7566 18.3395 38.2131 18.3395H36.3487V21.1484ZM45.8233 27.1541C45.3394 27.1541 44.9036 27.0679 44.5158 26.8956C44.1313 26.7199 43.8264 26.4614 43.601 26.12C43.379 25.7786 43.2679 25.3577 43.2679 24.8572C43.2679 24.4264 43.3475 24.0701 43.5066 23.7884C43.6657 23.5066 43.8828 23.2812 44.1578 23.1122C44.4329 22.9432 44.7428 22.8156 45.0875 22.7294C45.4355 22.6399 45.7952 22.5753 46.1664 22.5355C46.6138 22.4891 46.9767 22.4477 47.2551 22.4112C47.5336 22.3714 47.7357 22.3118 47.8617 22.2322C47.9909 22.1494 48.0556 22.0218 48.0556 21.8494V21.8196C48.0556 21.4451 47.9445 21.1551 47.7225 20.9496C47.5004 20.7441 47.1806 20.6413 46.763 20.6413C46.3221 20.6413 45.9725 20.7375 45.714 20.9297C45.4587 21.1219 45.2864 21.349 45.1969 21.6108L43.5165 21.3722C43.6491 20.9081 43.8678 20.5204 44.1728 20.2088C44.4777 19.8939 44.8506 19.6586 45.2914 19.5028C45.7322 19.3438 46.2194 19.2642 46.753 19.2642C47.1209 19.2642 47.4872 19.3073 47.8517 19.3935C48.2163 19.4796 48.5494 19.6222 48.851 19.821C49.1526 20.0166 49.3946 20.2834 49.5769 20.6214C49.7625 20.9595 49.8553 21.3821 49.8553 21.8892V27H48.1252V25.951H48.0655C47.9561 26.1631 47.802 26.362 47.6032 26.5476C47.4076 26.7299 47.1607 26.8774 46.8624 26.9901C46.5674 27.0994 46.2211 27.1541 45.8233 27.1541ZM46.2907 25.8317C46.6519 25.8317 46.9651 25.7604 47.2303 25.6179C47.4954 25.4721 47.6993 25.2798 47.8418 25.0412C47.9876 24.8026 48.0605 24.5424 48.0605 24.2607V23.3608C48.0042 23.4072 47.9081 23.4503 47.7722 23.4901C47.6396 23.5298 47.4905 23.5646 47.3248 23.5945C47.159 23.6243 46.995 23.6508 46.8326 23.674C46.6702 23.6972 46.5293 23.7171 46.41 23.7337C46.1415 23.7701 45.9012 23.8298 45.6891 23.9126C45.477 23.9955 45.3096 24.1115 45.187 24.2607C45.0643 24.4065 45.003 24.5954 45.003 24.8274C45.003 25.1589 45.124 25.4091 45.3659 25.5781C45.6079 25.7472 45.9161 25.8317 46.2907 25.8317ZM54.9959 27.1491C54.2336 27.1491 53.579 26.9818 53.0321 26.647C52.4886 26.3123 52.0693 25.8499 51.7743 25.2599C51.4827 24.6667 51.3368 23.9839 51.3368 23.2116C51.3368 22.4361 51.486 21.7517 51.7843 21.1584C52.0826 20.5618 52.5035 20.0978 53.0471 19.7663C53.5939 19.4316 54.2402 19.2642 54.986 19.2642C55.6058 19.2642 56.1543 19.3786 56.6316 19.6072C57.1122 19.8326 57.495 20.1525 57.78 20.5668C58.065 20.9777 58.2275 21.4583 58.2672 22.0085H56.5471C56.4775 21.6406 56.3117 21.334 56.0499 21.0888C55.7914 20.8402 55.445 20.7159 55.0108 20.7159C54.6429 20.7159 54.3198 20.8153 54.0414 21.0142C53.763 21.2098 53.5459 21.4915 53.3901 21.8594C53.2376 22.2273 53.1614 22.6681 53.1614 23.1818C53.1614 23.7022 53.2376 24.1496 53.3901 24.5241C53.5426 24.8954 53.7563 25.1821 54.0314 25.3842C54.3098 25.5831 54.6363 25.6825 55.0108 25.6825C55.276 25.6825 55.513 25.6328 55.7218 25.5334C55.9339 25.4306 56.1112 25.2831 56.2537 25.0909C56.3962 24.8987 56.494 24.665 56.5471 24.3899H58.2672C58.2241 24.9302 58.065 25.4091 57.79 25.8267C57.5149 26.241 57.1403 26.5658 56.6664 26.8011C56.1924 27.0331 55.6356 27.1491 54.9959 27.1491ZM61.3857 24.6037L61.3807 22.4311H61.669L64.4134 19.3636H66.5163L63.1406 23.1222H62.7678L61.3857 24.6037ZM59.745 27V16.8182H61.5447V27H59.745ZM64.5376 27L62.0518 23.5249L63.2649 22.2571L66.6903 27H64.5376Z" fill="#2B303A"/>
</svg>
