<svg width="18" height="20" viewBox="0 0 18 20" fill="none" xmlns="http://www.w3.org/2000/svg">
<path d="M6.63101 17.3108V14.7552C6.63099 14.1052 7.16093 13.577 7.81751 13.5726H10.2226C10.8823 13.5726 11.4171 14.1021 11.4171 14.7552V17.3187C11.4169 17.8706 11.8619 18.3217 12.4192 18.3346H14.0226C15.6209 18.3346 16.9167 17.0519 16.9167 15.4695V8.1995C16.9081 7.57699 16.6129 6.99243 16.115 6.61216L10.6314 2.23905C9.67077 1.47761 8.30517 1.47761 7.34451 2.23905L1.88502 6.6201C1.38521 6.99882 1.08948 7.58436 1.08333 8.20743V15.4695C1.08333 17.0519 2.37906 18.3346 3.97742 18.3346H5.5808C6.15196 18.3346 6.61497 17.8763 6.61497 17.3108" stroke="white" stroke-width="1.6" stroke-linecap="round" stroke-linejoin="round"/>
</svg>
