<svg width="220" height="60" viewBox="0 0 220 60" fill="none" xmlns="http://www.w3.org/2000/svg">
<path d="M12.1493 0.732014L4.91642 26.9665C4.74164 27.6004 5.22029 28.2262 5.87996 28.2262H32.1808C32.6345 28.2262 33.0312 27.9216 33.147 27.4845L40.0962 1.25006C40.2635 0.618416 39.7856 0 39.1301 0H13.1128C12.6629 0 12.2685 0.299652 12.1493 0.732014Z" fill="white"/>
<path d="M40.1706 13.378L36.3528 27.1189C36.1766 27.7533 36.6554 28.3805 37.3158 28.3805H51.176C51.629 28.3805 52.0252 28.0769 52.1417 27.6407L55.8097 13.8998C55.9785 13.2677 55.5004 12.6479 54.8441 12.6479H41.1336C40.6844 12.6479 40.2905 12.9466 40.1706 13.378Z" fill="white"/>
<path d="M23.1357 32.5058L15.9028 58.7403C15.728 59.3742 16.2067 60 16.8663 60H43.1672C43.6208 60 44.0176 59.6954 44.1334 59.2583L51.0826 33.0239C51.2499 32.3922 50.7719 31.7738 50.1164 31.7738H24.0992C23.6493 31.7738 23.2549 32.0735 23.1357 32.5058Z" fill="white"/>
<path d="M3.85459 32.5039L0.0368163 46.2448C-0.139441 46.8792 0.339341 47.5064 0.999829 47.5064H14.86C15.3129 47.5064 15.7092 47.2028 15.8257 46.7666L19.4937 33.0257C19.6625 32.3936 19.1844 31.7738 18.5281 31.7738H4.81761C4.36843 31.7738 3.97446 32.0725 3.85459 32.5039Z" fill="white"/>
<path d="M67.9451 5.94534H70.673V24.6478H67.9451V5.94534ZM74.9898 14.2808V16.402H69.4739V14.2808H74.9898ZM76.1289 5.94534V8.12629H69.384V5.94534H76.1289Z" fill="white"/>
<path d="M86.7419 21.6004V5.94534H89.4699V22.0187C89.4699 22.8751 89.24 23.5324 88.7804 23.9905C88.3407 24.4287 87.6312 24.6478 86.652 24.6478H84.6735V22.4668H85.8726C86.2323 22.4668 86.4621 22.4071 86.5621 22.2876C86.682 22.1681 86.7419 21.939 86.7419 21.6004ZM83.2346 5.94534V21.6004C83.2346 21.939 83.2945 22.1681 83.4144 22.2876C83.5343 22.4071 83.7741 22.4668 84.1339 22.4668H85.0632V24.6478H83.3245C82.3452 24.6478 81.6258 24.4287 81.1661 23.9905C80.7264 23.5324 80.5066 22.8751 80.5066 22.0187V5.94534H83.2346Z" fill="white"/>
<path d="M96.9481 6.30385H99.6461V24.6478H96.9481V6.30385ZM102.794 5.94534V8.12629H93.8005V5.94534H102.794Z" fill="white"/>
<path d="M113.333 21.6004V5.94534H116.061V22.0187C116.061 22.8751 115.831 23.5324 115.371 23.9905C114.932 24.4287 114.222 24.6478 113.243 24.6478H111.264V22.4668H112.464C112.823 22.4668 113.053 22.4071 113.153 22.2876C113.273 22.1681 113.333 21.939 113.333 21.6004ZM109.826 5.94534V21.6004C109.826 21.939 109.885 22.1681 110.005 22.2876C110.125 22.4071 110.365 22.4668 110.725 22.4668H111.654V24.6478H109.915C108.936 24.6478 108.217 24.4287 107.757 23.9905C107.317 23.5324 107.098 22.8751 107.098 22.0187V5.94534H109.826Z" fill="white"/>
<path d="M128.036 14.0716V8.9927C128.036 8.63419 127.976 8.40514 127.856 8.30555C127.756 8.18604 127.516 8.12629 127.136 8.12629H122.16V5.94534H127.946C128.925 5.94534 129.635 6.17439 130.074 6.63249C130.534 7.07067 130.764 7.71799 130.764 8.57443V14.4301C130.764 15.3065 130.534 15.9737 130.074 16.4318C129.635 16.87 128.925 17.0891 127.946 17.0891H123.119V14.938H127.136C127.516 14.938 127.756 14.8783 127.856 14.7588C127.976 14.6393 128.036 14.4102 128.036 14.0716ZM121.8 5.94534H124.498V24.6478H121.8V5.94534ZM125.578 16.0136H128.335L131.723 24.6478H128.785L125.578 16.0136Z" fill="white"/>
<path d="M136.624 5.94534H139.322V24.6478H136.624V5.94534Z" fill="white"/>
<path d="M150.772 21.6004V17.0294C150.772 16.6709 150.712 16.4418 150.592 16.3422C150.492 16.2227 150.262 16.163 149.903 16.163H147.684C146.725 16.163 146.026 15.9339 145.586 15.4758C145.166 15.0177 144.956 14.3604 144.956 13.504V8.57443C144.956 7.71799 145.176 7.07067 145.616 6.63249C146.076 6.17439 146.785 5.94534 147.744 5.94534H150.682C151.661 5.94534 152.371 6.17439 152.81 6.63249C153.25 7.07067 153.47 7.71799 153.47 8.57443V11.323H150.742V8.9927C150.742 8.63419 150.682 8.40514 150.562 8.30555C150.462 8.18604 150.222 8.12629 149.843 8.12629H148.584C148.224 8.12629 147.984 8.18604 147.864 8.30555C147.744 8.40514 147.684 8.63419 147.684 8.9927V13.1455C147.684 13.4841 147.744 13.7131 147.864 13.8326C147.984 13.9521 148.224 14.0119 148.584 14.0119H150.772C151.731 14.0119 152.431 14.2409 152.87 14.699C153.31 15.1372 153.53 15.7845 153.53 16.641V22.0187C153.53 22.8751 153.3 23.5324 152.84 23.9905C152.401 24.4287 151.701 24.6478 150.742 24.6478H147.804C146.845 24.6478 146.135 24.4287 145.676 23.9905C145.236 23.5324 145.016 22.8751 145.016 22.0187V19.2701H147.744V21.6004C147.744 21.939 147.804 22.1681 147.924 22.2876C148.044 22.4071 148.284 22.4668 148.644 22.4668H149.903C150.262 22.4668 150.492 22.4071 150.592 22.2876C150.712 22.1681 150.772 21.939 150.772 21.6004Z" fill="white"/>
<path d="M160.674 6.30385H163.372V24.6478H160.674V6.30385ZM166.519 5.94534V8.12629H157.526V5.94534H166.519Z" fill="white"/>
<path d="M171.153 5.94534H173.851V24.6478H171.153V5.94534Z" fill="white"/>
<path d="M182.483 8.93295V21.69C182.483 22.0286 182.543 22.2577 182.663 22.3772C182.783 22.4967 183.023 22.5564 183.383 22.5564H184.222V24.6776H182.543C181.584 24.6776 180.875 24.4586 180.415 24.0204C179.975 23.5623 179.755 22.895 179.755 22.0187V8.57443C179.755 7.71799 179.975 7.07067 180.415 6.63249C180.875 6.17439 181.584 5.94534 182.543 5.94534H184.402V8.06654H183.383C183.023 8.06654 182.783 8.12629 182.663 8.2458C182.543 8.34538 182.483 8.57443 182.483 8.93295ZM185.781 11.8011V8.93295C185.781 8.57443 185.721 8.34538 185.601 8.2458C185.501 8.12629 185.271 8.06654 184.911 8.06654H183.922V5.94534H185.721C186.7 5.94534 187.41 6.17439 187.849 6.63249C188.309 7.07067 188.539 7.71799 188.539 8.57443V11.8011H185.781ZM185.781 21.69V18.8518H188.539V22.0187C188.539 22.895 188.309 23.5623 187.849 24.0204C187.41 24.4586 186.7 24.6776 185.721 24.6776H183.922V22.5564H184.911C185.271 22.5564 185.501 22.4967 185.601 22.3772C185.721 22.2577 185.781 22.0286 185.781 21.69Z" fill="white"/>
<path d="M71.5923 54.962V39.307H74.3203V55.3803C74.3203 56.2367 74.0905 56.894 73.6308 57.3521C73.1911 57.7903 72.4817 58.0094 71.5024 58.0094H69.5239V55.8284H70.723C71.0827 55.8284 71.3126 55.7687 71.4125 55.6492C71.5324 55.5297 71.5923 55.3006 71.5923 54.962ZM68.085 39.307V54.962C68.085 55.3006 68.1449 55.5297 68.2648 55.6492C68.3848 55.7687 68.6246 55.8284 68.9843 55.8284H69.9136V58.0094H68.1749C67.1956 58.0094 66.4762 57.7903 66.0165 57.3521C65.5769 56.894 65.357 56.2367 65.357 55.3803V39.307H68.085Z" fill="white"/>
<path d="M85.8455 39.307H88.3336V58.0094H85.6057L81.6486 44.5353V58.0094H79.1605V39.307H82.0084L85.8455 52.4226V39.307Z" fill="white"/>
<path d="M99.9096 46.298V42.2946C99.9096 41.9361 99.8497 41.707 99.7297 41.6074C99.6098 41.4879 99.37 41.4282 99.0103 41.4282H94.6036V39.307H99.8497C100.809 39.307 101.508 39.536 101.948 39.9941C102.408 40.4323 102.638 41.0796 102.638 41.9361V46.298H99.9096ZM99.9096 55.0218V45.6108H102.638V55.3803C102.638 56.2367 102.408 56.894 101.948 57.3521C101.508 57.7903 100.809 58.0094 99.8497 58.0094H94.6036V55.8882H99.0103C99.37 55.8882 99.6098 55.8284 99.7297 55.7089C99.8497 55.5894 99.9096 55.3604 99.9096 55.0218ZM93.3146 39.307H96.0425V58.0094H93.3146V39.307Z" fill="white"/>
<path d="M107.407 39.307H110.135V58.0094H107.407V39.307ZM114.452 47.254V49.435H108.906V47.254H114.452ZM115.351 39.307V41.4879H108.846V39.307H115.351ZM115.561 55.8284V58.0094H108.846V55.8284H115.561Z" fill="white"/>
<path d="M125.717 47.4333V42.3543C125.717 41.9958 125.657 41.7668 125.537 41.6672C125.437 41.5477 125.197 41.4879 124.817 41.4879H119.841V39.307H125.627C126.606 39.307 127.316 39.536 127.755 39.9941C128.215 40.4323 128.445 41.0796 128.445 41.9361V47.7918C128.445 48.6681 128.215 49.3354 127.755 49.7935C127.316 50.2317 126.606 50.4507 125.627 50.4507H120.8V48.2997H124.817C125.197 48.2997 125.437 48.2399 125.537 48.1204C125.657 48.0009 125.717 47.7719 125.717 47.4333ZM119.481 39.307H122.179V58.0094H119.481V39.307ZM123.259 49.3752H126.017L129.404 58.0094H126.466L123.259 49.3752Z" fill="white"/>
<path d="M146.865 39.307H149.563L146.566 58.0094H142.848L140.72 43.9676L138.652 58.0094H134.904L131.907 39.307H134.695L136.793 55.5596L139.221 39.307H142.249L144.647 55.5596L146.865 39.307Z" fill="white"/>
<path d="M159.467 47.4333V42.3543C159.467 41.9958 159.407 41.7668 159.287 41.6672C159.187 41.5477 158.948 41.4879 158.568 41.4879H153.592V39.307H159.377C160.357 39.307 161.066 39.536 161.506 39.9941C161.965 40.4323 162.195 41.0796 162.195 41.9361V47.7918C162.195 48.6681 161.965 49.3354 161.506 49.7935C161.066 50.2317 160.357 50.4507 159.377 50.4507H154.551V48.2997H158.568C158.948 48.2997 159.187 48.2399 159.287 48.1204C159.407 48.0009 159.467 47.7719 159.467 47.4333ZM153.232 39.307H155.93V58.0094H153.232V39.307ZM157.009 49.3752H159.767L163.154 58.0094H160.217L157.009 49.3752Z" fill="white"/>
<path d="M167.156 39.307H169.854V58.0094H167.156V39.307Z" fill="white"/>
<path d="M176.748 39.6655H179.446V58.0094H176.748V39.6655ZM182.593 39.307V41.4879H173.6V39.307H182.593Z" fill="white"/>
<path d="M186.088 39.307H188.816V58.0094H186.088V39.307ZM193.132 47.254V49.435H187.587V47.254H193.132ZM194.032 39.307V41.4879H187.527V39.307H194.032ZM194.242 55.8284V58.0094H187.527V55.8284H194.242Z" fill="white"/>
<path d="M204.397 47.4333V42.3543C204.397 41.9958 204.337 41.7668 204.217 41.6672C204.117 41.5477 203.878 41.4879 203.498 41.4879H198.522V39.307H204.307C205.287 39.307 205.996 39.536 206.436 39.9941C206.895 40.4323 207.125 41.0796 207.125 41.9361V47.7918C207.125 48.6681 206.895 49.3354 206.436 49.7935C205.996 50.2317 205.287 50.4507 204.307 50.4507H199.481V48.2997H203.498C203.878 48.2997 204.117 48.2399 204.217 48.1204C204.337 48.0009 204.397 47.7719 204.397 47.4333ZM198.162 39.307H200.86V58.0094H198.162V39.307ZM201.939 49.3752H204.697L208.084 58.0094H205.147L201.939 49.3752Z" fill="white"/>
<path d="M217.242 54.962V50.391C217.242 50.0325 217.182 49.8034 217.062 49.7038C216.962 49.5843 216.732 49.5246 216.373 49.5246H214.154C213.195 49.5246 212.496 49.2955 212.056 48.8374C211.636 48.3793 211.426 47.7221 211.426 46.8656V41.9361C211.426 41.0796 211.646 40.4323 212.086 39.9941C212.546 39.536 213.255 39.307 214.214 39.307H217.152C218.131 39.307 218.841 39.536 219.281 39.9941C219.72 40.4323 219.94 41.0796 219.94 41.9361V44.6847H217.212V42.3543C217.212 41.9958 217.152 41.7668 217.032 41.6672C216.932 41.5477 216.692 41.4879 216.313 41.4879H215.054C214.694 41.4879 214.454 41.5477 214.334 41.6672C214.214 41.7668 214.154 41.9958 214.154 42.3543V46.5071C214.154 46.8457 214.214 47.0747 214.334 47.1942C214.454 47.3138 214.694 47.3735 215.054 47.3735H217.242C218.201 47.3735 218.901 47.6026 219.34 48.0607C219.78 48.4988 220 49.1462 220 50.0026V55.3803C220 56.2367 219.77 56.894 219.311 57.3521C218.871 57.7903 218.171 58.0094 217.212 58.0094H214.274C213.315 58.0094 212.606 57.7903 212.146 57.3521C211.706 56.894 211.486 56.2367 211.486 55.3803V52.6317H214.214V54.962C214.214 55.3006 214.274 55.5297 214.394 55.6492C214.514 55.7687 214.754 55.8284 215.114 55.8284H216.373C216.732 55.8284 216.962 55.7687 217.062 55.6492C217.182 55.5297 217.242 55.3006 217.242 54.962Z" fill="white"/>
</svg>
