<svg width="46" height="21" viewBox="0 0 46 21" fill="none" xmlns="http://www.w3.org/2000/svg">
<path d="M2.31179 15.2891H0.34304L3.92756 5.10724H6.20455L9.79403 15.2891H7.82528L5.10582 7.19531H5.02628L2.31179 15.2891ZM2.37642 11.2969H7.74574V12.7784H2.37642V11.2969ZM13.657 15.4233C13.0571 15.4233 12.5201 15.2692 12.0462 14.9609C11.5722 14.6527 11.1977 14.2053 10.9226 13.6186C10.6475 13.032 10.5099 12.3194 10.5099 11.4808C10.5099 10.6323 10.6491 9.91643 10.9276 9.3331C11.2093 8.74645 11.5888 8.30398 12.0661 8.00568C12.5433 7.70407 13.0753 7.55327 13.6619 7.55327C14.1094 7.55327 14.4773 7.6295 14.7656 7.78196C15.054 7.93111 15.2827 8.11174 15.4517 8.32386C15.6207 8.53267 15.7517 8.72988 15.8445 8.91548H15.919V5.10724H17.7237V15.2891H15.9538V14.0859H15.8445C15.7517 14.2715 15.6174 14.4687 15.4418 14.6776C15.2661 14.883 15.0341 15.0587 14.7457 15.2045C14.4574 15.3504 14.0945 15.4233 13.657 15.4233ZM14.1591 13.9467C14.5402 13.9467 14.8651 13.844 15.1335 13.6385C15.402 13.4297 15.6058 13.1397 15.745 12.7685C15.8842 12.3973 15.9538 11.9647 15.9538 11.4709C15.9538 10.977 15.8842 10.5478 15.745 10.1832C15.6091 9.81866 15.407 9.53527 15.1385 9.3331C14.8733 9.13092 14.5469 9.02983 14.1591 9.02983C13.758 9.02983 13.4233 9.13423 13.1548 9.34304C12.8864 9.55185 12.6842 9.8402 12.5483 10.2081C12.4124 10.576 12.3445 10.9969 12.3445 11.4709C12.3445 11.9482 12.4124 12.3741 12.5483 12.7486C12.6875 13.1198 12.8913 13.4131 13.1598 13.6286C13.4316 13.8407 13.7647 13.9467 14.1591 13.9467ZM22.4753 15.4233C21.8754 15.4233 21.3385 15.2692 20.8645 14.9609C20.3906 14.6527 20.016 14.2053 19.7409 13.6186C19.4658 13.032 19.3283 12.3194 19.3283 11.4808C19.3283 10.6323 19.4675 9.91643 19.7459 9.3331C20.0276 8.74645 20.4071 8.30398 20.8844 8.00568C21.3617 7.70407 21.8936 7.55327 22.4803 7.55327C22.9277 7.55327 23.2956 7.6295 23.584 7.78196C23.8723 7.93111 24.101 8.11174 24.2701 8.32386C24.4391 8.53267 24.57 8.72988 24.6628 8.91548H24.7374V5.10724H26.5421V15.2891H24.7722V14.0859H24.6628C24.57 14.2715 24.4358 14.4687 24.2601 14.6776C24.0845 14.883 23.8525 15.0587 23.5641 15.2045C23.2757 15.3504 22.9128 15.4233 22.4753 15.4233ZM22.9775 13.9467C23.3586 13.9467 23.6834 13.844 23.9519 13.6385C24.2203 13.4297 24.4242 13.1397 24.5634 12.7685C24.7026 12.3973 24.7722 11.9647 24.7722 11.4709C24.7722 10.977 24.7026 10.5478 24.5634 10.1832C24.4275 9.81866 24.2253 9.53527 23.9569 9.3331C23.6917 9.13092 23.3652 9.02983 22.9775 9.02983C22.5764 9.02983 22.2417 9.13423 21.9732 9.34304C21.7047 9.55185 21.5025 9.8402 21.3667 10.2081C21.2308 10.576 21.1628 10.9969 21.1628 11.4709C21.1628 11.9482 21.2308 12.3741 21.3667 12.7486C21.5059 13.1198 21.7097 13.4131 21.9782 13.6286C22.2499 13.8407 22.583 13.9467 22.9775 13.9467Z" fill="#2B303A"/>
<path d="M35.9993 4.45703V16.1237M30.166 10.2904H41.8327" stroke="#2B303A" stroke-width="2" stroke-linecap="round" stroke-linejoin="round"/>
</svg>
