<svg width="17" height="18" viewBox="0 0 17 18" fill="none" xmlns="http://www.w3.org/2000/svg">
<path d="M7.76694 13.168H9.43361V8.16797H7.76694V13.168ZM8.60027 6.5013C8.83638 6.5013 9.0343 6.42144 9.19402 6.26172C9.35374 6.102 9.43361 5.90408 9.43361 5.66797C9.43361 5.43186 9.35374 5.23394 9.19402 5.07422C9.0343 4.9145 8.83638 4.83464 8.60027 4.83464C8.36416 4.83464 8.16624 4.9145 8.00652 5.07422C7.8468 5.23394 7.76694 5.43186 7.76694 5.66797C7.76694 5.90408 7.8468 6.102 8.00652 6.26172C8.16624 6.42144 8.36416 6.5013 8.60027 6.5013ZM8.60027 17.3346C7.44749 17.3346 6.36416 17.1159 5.35027 16.6784C4.33638 16.2409 3.45444 15.6471 2.70444 14.8971C1.95444 14.1471 1.36069 13.2652 0.923187 12.2513C0.485687 11.2374 0.266937 10.1541 0.266937 9.0013C0.266937 7.84853 0.485687 6.76519 0.923187 5.7513C1.36069 4.73741 1.95444 3.85547 2.70444 3.10547C3.45444 2.35547 4.33638 1.76172 5.35027 1.32422C6.36416 0.886719 7.44749 0.667969 8.60027 0.667969C9.75305 0.667969 10.8364 0.886719 11.8503 1.32422C12.8642 1.76172 13.7461 2.35547 14.4961 3.10547C15.2461 3.85547 15.8399 4.73741 16.2774 5.7513C16.7149 6.76519 16.9336 7.84853 16.9336 9.0013C16.9336 10.1541 16.7149 11.2374 16.2774 12.2513C15.8399 13.2652 15.2461 14.1471 14.4961 14.8971C13.7461 15.6471 12.8642 16.2409 11.8503 16.6784C10.8364 17.1159 9.75305 17.3346 8.60027 17.3346Z" fill="#2B446C" fill-opacity="0.5"/>
</svg>
