<svg width="16" height="18" viewBox="0 0 16 18" fill="none" xmlns="http://www.w3.org/2000/svg">
<path d="M2.71678 17.9358C2.07633 17.9358 1.53428 17.7139 1.09061 17.2703C0.646943 16.8266 0.42511 16.2859 0.42511 15.6482V13.3524H3.17511V0.695312L4.44446 1.78844L5.73124 0.695312L7.01801 1.78844L8.30501 0.695312L9.59178 1.78844L10.8785 0.695312L12.1655 1.78844L13.4523 0.695312L14.7391 1.78844L16.0084 0.695312V15.6441C16.0084 16.2845 15.7866 16.8266 15.3429 17.2703C14.8993 17.7139 14.3572 17.9358 13.7168 17.9358H2.71678ZM13.7168 16.5608C13.9765 16.5608 14.1942 16.4729 14.3699 16.2972C14.5456 16.1215 14.6334 15.9038 14.6334 15.6441V2.81075H4.55011V13.3524H12.8001V15.6441C12.8001 15.9038 12.888 16.1215 13.0637 16.2972C13.2393 16.4729 13.4571 16.5608 13.7168 16.5608ZM5.64301 6.24825V4.87325H10.8433V6.24825H5.64301ZM5.64301 8.99825V7.62325H10.8433V8.99825H5.64301ZM12.7472 6.37154C12.5227 6.37154 12.3315 6.29256 12.1733 6.13458C12.0154 5.97646 11.9364 5.78518 11.9364 5.56075C11.9364 5.33632 12.0154 5.14504 12.1733 4.98692C12.3315 4.82895 12.5227 4.74996 12.7472 4.74996C12.9716 4.74996 13.1629 4.82895 13.321 4.98692C13.4791 5.14504 13.5582 5.33632 13.5582 5.56075C13.5582 5.78518 13.4791 5.97646 13.321 6.13458C13.1629 6.29256 12.9716 6.37154 12.7472 6.37154ZM12.7472 9.12154C12.5227 9.12154 12.3315 9.04256 12.1733 8.88459C12.0154 8.72646 11.9364 8.53518 11.9364 8.31075C11.9364 8.08632 12.0154 7.89504 12.1733 7.73692C12.3315 7.57895 12.5227 7.49996 12.7472 7.49996C12.9716 7.49996 13.1629 7.57895 13.321 7.73692C13.4791 7.89504 13.5582 8.08632 13.5582 8.31075C13.5582 8.53518 13.4791 8.72646 13.321 8.88459C13.1629 9.04256 12.9716 9.12154 12.7472 9.12154ZM2.71678 16.5608H11.4251V14.7274H1.80011V15.6441C1.80011 15.9038 1.88796 16.1215 2.06365 16.2972C2.23935 16.4729 2.45705 16.5608 2.71678 16.5608Z" fill="white"/>
</svg>
