<svg width="20" height="20" viewBox="0 0 20 20" fill="none" xmlns="http://www.w3.org/2000/svg">
<path d="M2.30802 19.5C1.80286 19.5 1.37527 19.325 1.02527 18.975C0.675275 18.625 0.500275 18.1974 0.500275 17.6922V7.30775C0.500275 6.80258 0.675275 6.375 1.02527 6.025C1.37527 5.675 1.80286 5.5 2.30802 5.5H7.50027V2C7.50027 1.58467 7.64644 1.23083 7.93877 0.938499C8.23111 0.646166 8.58494 0.5 9.00027 0.5H11.0003C11.4156 0.5 11.7694 0.646166 12.0618 0.938499C12.3541 1.23083 12.5003 1.58467 12.5003 2V5.5H17.6925C18.1977 5.5 18.6253 5.675 18.9753 6.025C19.3253 6.375 19.5003 6.80258 19.5003 7.30775V17.6922C19.5003 18.1974 19.3253 18.625 18.9753 18.975C18.6253 19.325 18.1977 19.5 17.6925 19.5H2.30802ZM2.30802 18H17.6925C17.7824 18 17.8561 17.9712 17.9138 17.9135C17.9714 17.8558 18.0003 17.7821 18.0003 17.6922V7.30775C18.0003 7.21792 17.9714 7.14417 17.9138 7.0865C17.8561 7.02883 17.7824 7 17.6925 7H12.5003V7.38475C12.5003 7.79358 12.3525 8.14575 12.057 8.44125C11.7615 8.73675 11.4093 8.8845 11.0003 8.8845H9.00027C8.59127 8.8845 8.23902 8.73675 7.94352 8.44125C7.64802 8.14575 7.50027 7.79358 7.50027 7.38475V7H2.30802C2.21819 7 2.14444 7.02883 2.08677 7.0865C2.02911 7.14417 2.00027 7.21792 2.00027 7.30775V17.6922C2.00027 17.7821 2.02911 17.8558 2.08677 17.9135C2.14444 17.9712 2.21819 18 2.30802 18ZM4.15402 15.7115H9.84652V15.4152C9.84652 15.1576 9.77536 14.9207 9.63302 14.7047C9.49069 14.4887 9.29386 14.3205 9.04252 14.2C8.71569 14.0563 8.38461 13.9487 8.04927 13.877C7.71411 13.8052 7.36444 13.7692 7.00027 13.7692C6.63611 13.7692 6.28644 13.8052 5.95127 13.877C5.61594 13.9487 5.28486 14.0563 4.95802 14.2C4.70669 14.3205 4.50986 14.4887 4.36752 14.7047C4.22519 14.9207 4.15402 15.1576 4.15402 15.4152V15.7115ZM12.0003 14.1922H16.0003V13H12.0003V14.1922ZM7.00027 13C7.37211 13 7.68944 12.8686 7.95227 12.6057C8.21511 12.3429 8.34652 12.0256 8.34652 11.6537C8.34652 11.2821 8.21511 10.9648 7.95227 10.702C7.68944 10.4392 7.37211 10.3077 7.00027 10.3077C6.62844 10.3077 6.31111 10.4392 6.04827 10.702C5.78544 10.9648 5.65402 11.2821 5.65402 11.6537C5.65402 12.0256 5.78544 12.3429 6.04827 12.6057C6.31111 12.8686 6.62844 13 7.00027 13ZM12.0003 11.5H16.0003V10.3077H12.0003V11.5ZM9.00027 7.38475H11.0003V2H9.00027V7.38475Z" fill="white"/>
</svg>
