<svg width="22" height="22" viewBox="0 0 22 22" fill="none" xmlns="http://www.w3.org/2000/svg">
<path d="M7.85714 3.14286H14.1429V1.57143H7.85714V3.14286ZM22 11V16.8929C22 17.433 21.8077 17.8955 21.423 18.2801C21.0383 18.6648 20.5759 18.8571 20.0357 18.8571H1.96429C1.42411 18.8571 0.961682 18.6648 0.577009 18.2801C0.192336 17.8955 0 17.433 0 16.8929V11H8.25V12.9643C8.25 13.1771 8.32775 13.3612 8.48326 13.5167C8.63876 13.6722 8.82292 13.75 9.03571 13.75H12.9643C13.1771 13.75 13.3612 13.6722 13.5167 13.5167C13.6722 13.3612 13.75 13.1771 13.75 12.9643V11H22ZM12.5714 11V12.5714H9.42857V11H12.5714ZM22 5.10714V9.82143H0V5.10714C0 4.56697 0.192336 4.10454 0.577009 3.71987C0.961682 3.33519 1.42411 3.14286 1.96429 3.14286H6.28571V1.17857C6.28571 0.851191 6.4003 0.572917 6.62946 0.34375C6.85863 0.114583 7.1369 0 7.46429 0H14.5357C14.8631 0 15.1414 0.114583 15.3705 0.34375C15.5997 0.572917 15.7143 0.851191 15.7143 1.17857V3.14286H20.0357C20.5759 3.14286 21.0383 3.33519 21.423 3.71987C21.8077 4.10454 22 4.56697 22 5.10714Z" fill="#253257"/>
</svg>
