<svg width="26" height="31" viewBox="0 0 26 31" fill="none" xmlns="http://www.w3.org/2000/svg">
<path d="M0.695801 26.2904V23.207H3.77913V12.4154C3.77913 10.2827 4.4215 8.38776 5.70622 6.73047C6.99094 5.07318 8.66108 3.98759 10.7166 3.4737V2.39453C10.7166 1.75217 10.9415 1.20616 11.3911 0.75651C11.8408 0.306858 12.3868 0.0820312 13.0291 0.0820312C13.6715 0.0820312 14.2175 0.306858 14.6672 0.75651C15.1168 1.20616 15.3416 1.75217 15.3416 2.39453V3.4737C17.3972 3.98759 19.0673 5.07318 20.3521 6.73047C21.6368 8.38776 22.2791 10.2827 22.2791 12.4154V23.207H25.3625V26.2904H0.695801ZM13.0291 30.9154C12.1812 30.9154 11.4553 30.6135 10.8515 30.0096C10.2477 29.4058 9.9458 28.6799 9.9458 27.832H16.1125C16.1125 28.6799 15.8106 29.4058 15.2067 30.0096C14.6029 30.6135 13.8771 30.9154 13.0291 30.9154Z" fill="#253257"/>
</svg>
